<svg xmlns="http://www.w3.org/2000/svg" viewBox="0 0 212 224.34"><defs><style>.cls-1{fill:#0080ba;}.cls-2{fill:none;stroke:#0b527c;stroke-miterlimit:10;stroke-width:10px;}.cls-3{fill:#fff;}</style></defs><title>partesRecurso 80</title><g id="Capa_2" data-name="Capa 2"><g id="Capa_1-2" data-name="Capa 1"><rect class="cls-1" x="16" y="16.67" width="180" height="191" rx="31.58" ry="31.58"/><rect class="cls-2" x="5" y="5" width="202" height="214.34" rx="37.93" ry="37.93"/><path class="cls-3" d="M179,95.72c-.15,10.08-3,20.08-11,28-6.44,6.33-14.1,9.62-23.33,8.33a17.08,17.08,0,0,1-14.51-12.75c-1.63-6.41.77-12.56,6.62-17,4-3.09,4.93-4.27,10.43.79a32.26,32.26,0,0,0,5.7,4.16c2.58,1.46,5.7,1,7.05-.83,1.71-2.31.87-4.56-.6-6.56s-3.09-3.59-4.58-5.43c-2-2.5-1.59-3.7,1.62-4,2.45-.23,4.83-.71,5.3-3.34a8.15,8.15,0,0,0-.92-5.54c-1.55-2.27-4.34-2.57-7-2-4.07,1-4.53.65-4.61-3.5a27.25,27.25,0,0,0-.34-5.43c-.79-3.5-3.27-5.4-5.88-4.87s-4.49,4-4.66,7a33,33,0,0,1-1.81,9.17c-1,2.69-3.34,3.55-6.3,2.94C124,83.59,118.7,77,117.9,69.37c-1.54-14.65,8.93-24.79,23.56-23.19,16,1.74,25.74,11.32,32.26,25.07A57,57,0,0,1,179,95.72Z"/><path class="cls-3" d="M32.85,91.7c.92-13.63,5.85-27.53,18.24-37.79,8.29-6.87,18-9.46,28.66-7,7.58,1.79,11.94,7.12,13.57,14.58,1.68,7.76.05,14.71-5.95,20.23-2.65,2.44-6,4.18-9.49,2.77s-4.13-5.08-4.68-8.44a17.58,17.58,0,0,1,0-3.55c.13-3.39-2.22-6.65-5-6.88s-5.39,2.53-5.65,6.2c-.13,1.81,0,3.65-.17,5.46-.3,2.81-1.09,2.94-3.81,2.57a13.31,13.31,0,0,0-6.72.76c-2.33,1-2.83,3.47-2.13,5.9a4.47,4.47,0,0,0,4.55,3.61,8.05,8.05,0,0,1,1.62.19c2.56.57,2.91,1.43,1.29,3.52s-3.37,3.84-4.89,5.89S50,104,51.79,106.29c1.34,1.76,4.59,2.28,7.05.8a40.12,40.12,0,0,0,6.26-4.77c3.72-3.36,5.28-3.54,9.22-.63,6.66,4.91,9.11,11.36,7,18.32S72.85,131.69,65,132.08c-11.87.6-23.17-6.92-28.51-18.94C33.76,107,32.69,100.44,32.85,91.7Z"/><path class="cls-3" d="M100.66,152.55c-3,0-5.61-.33-8.16.06-6.87,1.07-9.73,7.19-6.3,13.3C89,171,94,172.55,99.26,173.26c4.64.63,4.66.52,4.65,5.17v4.2h-3.36c0-1-.12-1.87-.15-2.76s0-1.62,0-2.33c-3-.82-5.89-1.38-8.6-2.39-5.19-1.93-9.12-5.24-10.66-10.86-2-7.27,1.92-13.72,9.46-15.45,1.32-.3,2.68-.47,4.32-.75V140c0-7.39.11-14.78-.09-22.16-.29-10.46-6.79-18.4-16.69-20.64a33.8,33.8,0,0,0-5.68-.71c-3.6-.18-6.81.62-9.26,3.64A15,15,0,0,1,59,103.55a3,3,0,0,1-2.86-.3,3.37,3.37,0,0,1-.28-3.12,31.75,31.75,0,0,1,3.82-4.24c3.1-3.37,2.43-6.09-1.81-7.7-1.79-.68-4.58-1-3.81-3.67.71-2.49,3.14-1.38,4.94-1,6.06,1.14,6.78.56,6.84-5.62,0-1.55-.32-3.18.07-4.62.29-1.07,1.5-1.89,2.3-2.82.91.86,2.25,1.56,2.62,2.6.6,1.68.49,3.59.78,5.38C72.72,85.08,77.07,89,82.76,92a50.32,50.32,0,0,1,10,6.56c5.36,4.78,7.79,11.12,7.84,18.3.06,10.76.06,21.53.08,32.29Z"/><path class="cls-3" d="M117.07,148.4c1.59.22,3,.29,4.26.61,9.81,2.39,13.23,12.51,6.93,20.5-3.49,4.42-8.4,6.22-13.71,7.26-1,.18-1.92.38-3.06.61v5.22h-3.18V174c2.6-.4,5.22-.65,7.78-1.22a14.45,14.45,0,0,0,9.09-5.61c2.28-3.22,2.85-6.7,1.13-10.32s-5-4.28-8.47-4.51c-2-.13-4,0-6.47,0,0-1.21,0-2.25,0-3.3,0-10.4.13-20.8.16-31.2,0-10.87,5-18.78,14.36-24,1.2-.66,2.44-1.24,3.67-1.82,6.83-3.24,10.8-8.47,11.3-16.14a7.39,7.39,0,0,1,.54-3.2c.51-.87,1.7-1.93,2.53-1.87a3.26,3.26,0,0,1,2,2.3c.31,2.24,0,4.55.16,6.82.26,4,1.3,4.77,5.18,4.07a20,20,0,0,1,4.3-.62c.81,0,2.08.76,2.23,1.39a3,3,0,0,1-1.22,2.39,19,19,0,0,1-3.51,1.48c-3,1.32-3.68,3.83-1.69,6.42,1.1,1.44,2.52,2.63,3.75,4s2.31,2.64.75,4.27-3,.42-4.32-.56a6.76,6.76,0,0,1-1.44-1.27c-4.37-5.91-10.33-5.68-16.53-4.23-9.71,2.26-16,9.67-16.48,20.26C116.74,127.66,117.07,137.88,117.07,148.4Z"/><path class="cls-3" d="M120.06,159.32c.42,5.34-5.14,10.24-13.74,10.18-8.32-.06-14.73-4.61-14.49-10.18Z"/></g></g></svg>