<svg xmlns="http://www.w3.org/2000/svg" viewBox="0 0 212 224.34"><defs><style>.cls-1{fill:#0080ba;}.cls-2{fill:none;stroke:#0b527c;stroke-miterlimit:10;stroke-width:10px;}.cls-3{fill:#fff;}</style></defs><title>partesRecurso 50</title><g id="Capa_2" data-name="Capa 2"><g id="Capa_1-2" data-name="Capa 1"><rect class="cls-1" x="16" y="16.67" width="180" height="191" rx="31.58" ry="31.58"/><rect class="cls-2" x="5" y="5" width="202" height="214.34" rx="37.93" ry="37.93"/><path class="cls-3" d="M73.07,87.47c-9.62-5-18.81-11.81-27.69-19.1-.7-.57-2.24-.12-3.39-.14,0,1-.36,2.28.13,2.85,1.32,1.52,2.8,3.38,4.58,3.94,6.41,2,10.24,7,9.11,12.56-1.42,7-6.56,10.69-13.74,9.84C32.62,96.3,28.54,90.6,30.48,80.6c1-5.42,2.6-10.74,4.11-16.06A14.85,14.85,0,0,1,42,55.18c3.79-2.06,7.48-1.94,10.58,1a51.29,51.29,0,0,1,8.1,9.16c4.67,7.34,15.15,9.62,23.61,6.46,14.5-5.41,29-6.47,43.38.73,8,4,18.29,1.09,23.75-5.94a95.54,95.54,0,0,1,7.81-9.1c5.11-5.13,11.23-4.77,15.86.82a14.82,14.82,0,0,1,3,5.11c1.77,6.27,3.7,12.56,4.65,19,1.64,11.07-7.8,18.17-18.38,14.25-4.29-1.58-7.53-6.69-7.29-11.48a10.71,10.71,0,0,1,8.47-9.84,7.85,7.85,0,0,0,5.22-4c.5-.81.75-2.45.28-3-.9-1.14-2.24-1.07-3.56,0a108.29,108.29,0,0,1-9.4,7.46c-6,4-12.07,7.78-18.19,11.52a2.89,2.89,0,0,0-1.66,2.95c-.07,14.19-1.19,28.28-7.85,41.13-2.24,4.34-6,7.91-8.92,11.9a5.11,5.11,0,0,0-1.1,3c.56,7.57.87,15.14-1.23,22.49A25.21,25.21,0,0,1,115,177.6c-5.35,6.66-15.21,5.68-19.53-1.68-2.68-4.59-3.59-9.72-3.89-14.91-.26-4.63,0-9.28-.11-13.91a9.65,9.65,0,0,0-1.2-4.53c-7.48-12.26-14.07-24.91-16.35-39.27C73.08,98.34,73.33,93.21,73.07,87.47Zm33.72,53.8,1.73.08c.48-1.91,1.1-3.8,1.42-5.74,1.16-7,2.36-14,3.28-21C114.89,102,121.55,93,132.71,87.09c3.14-1.65,6.38-3.09,9.54-4.68a7.9,7.9,0,0,0,1.49-1.3l-.35-.91c-23.76,9.54-47.48,9.53-71.39.32a3.76,3.76,0,0,0,1.7,2c5.5,3,11.15,5.75,16.49,9A22,22,0,0,1,100,104.8c1.26,4.55,2.83,9,3.73,13.67,1.07,5.58,1.59,11.28,2.33,16.92C106.35,137.35,106.56,139.31,106.79,141.27Z"/></g></g></svg>