<svg xmlns="http://www.w3.org/2000/svg" viewBox="0 0 212 224.34"><defs><style>.cls-1{fill:#0080ba;}.cls-2{fill:none;stroke:#0b527c;stroke-miterlimit:10;stroke-width:10px;}.cls-3{fill:#fff;}</style></defs><title>partesRecurso 110</title><g id="Capa_2" data-name="Capa 2"><g id="Capa_1-2" data-name="Capa 1"><rect class="cls-1" x="16" y="16.67" width="180" height="191" rx="31.58" ry="31.58"/><rect class="cls-2" x="5" y="5" width="202" height="214.34" rx="37.93" ry="37.93"/><path class="cls-3" d="M64.13,145.2c.49-7.66.94-15.32,1.49-23a44.6,44.6,0,0,0-2.72-17.75c-3.25-9.58-6.43-19.16-7.43-29.34-1.72-17.51,7.09-27.66,24-31.33a29.24,29.24,0,0,1,19.11,2.66c5.17,2.47,9.67,2.31,14.83,0,10.22-4.7,20.35-4,30.31,1.48,10.35,5.65,13.71,15.45,12.84,26.44s-4.53,21.58-8.15,32c-2.51,7.19-2.26,14.46-1.75,21.83.73,10.4,2.26,20.85-.37,31.16-2.75,10.81-9.31,19.25-17.65,26.38a6.08,6.08,0,0,1-7.44.57,6.61,6.61,0,0,1-3.34-7c.48-4.26,1.18-8.51,1.49-12.78.8-10.77.23-21.43-5.72-30.85-7.15-11.33-8.11-11.22-15.33-.15-4.32,6.63-5.9,14.21-5.89,21.94A203.65,203.65,0,0,0,94,178.19c.39,3.73-.4,6.47-3.06,8-2.94,1.73-5.65,1.41-8.66-1.35C72,175.46,63.29,163.47,64.13,145.2Zm79.52-51.82,1.24.32c1-1.88,2.61-3.66,3-5.66,2.24-12-.24-23-8-32.54a14.08,14.08,0,0,0-5.23-3.6c-3.17-1.41-8.64-.23-10.24,2.11-2.25,3.29.31,5.73,1.81,8.32.11.17.24.33.36.5C133.8,72.15,141.16,81.37,143.65,93.38Z"/><path class="cls-1" d="M143.65,93.38c-2.49-12-9.85-21.23-17.05-30.55-.12-.17-.25-.33-.36-.5-1.5-2.59-4.06-5-1.81-8.32,1.6-2.34,7.07-3.52,10.24-2.11a14.08,14.08,0,0,1,5.23,3.6c7.73,9.56,10.21,20.55,8,32.54-.37,2-2,3.78-3,5.66Z"/></g></g></svg>