<svg xmlns="http://www.w3.org/2000/svg" viewBox="0 0 212 224.34"><defs><style>.cls-1{fill:#0080ba;}.cls-2{fill:none;stroke:#0b527c;stroke-miterlimit:10;stroke-width:10px;}.cls-3{fill:#fff;}</style></defs><title>partesRecurso 70</title><g id="Capa_2" data-name="Capa 2"><g id="Capa_1-2" data-name="Capa 1"><rect class="cls-1" x="16" y="16.67" width="180" height="191" rx="31.58" ry="31.58"/><rect class="cls-2" x="5" y="5" width="202" height="214.34" rx="37.93" ry="37.93"/><path class="cls-3" d="M34.07,165.19,36.44,159a86.32,86.32,0,0,1,6.34-14,27.44,27.44,0,0,1,6.84-7.91,17.18,17.18,0,0,1,10.8-3.4,34.61,34.61,0,0,1,11.92,2.11,49.28,49.28,0,0,0,16,3c6.19.18,10.5-2.59,13.39-7.88a40.86,40.86,0,0,0,4.06-12.4,98.43,98.43,0,0,0,1.2-18.23A80.54,80.54,0,0,1,108.34,84,36.71,36.71,0,0,1,112.1,73.1a21.88,21.88,0,0,1,12.12-10.4A38.23,38.23,0,0,1,145,61.17a34.36,34.36,0,0,1,20.09,12.71c5.26,6.57,8,14.19,9.22,22.45,1.34,9.37.51,18.64-1.36,27.86A75.23,75.23,0,0,1,161.62,152a62.84,62.84,0,0,1-29.57,23.79A67.2,67.2,0,0,1,100.76,180a42.34,42.34,0,0,1-24-10.39c-2.13-1.82-4.18-3.73-6.29-5.57-.89-.77-1.82-1.49-2.77-2.18A11,11,0,0,0,60,160a2.4,2.4,0,0,0-1.55,1.05,23,23,0,0,0-2.12,4.09,50,50,0,0,0-1.8,6,3.5,3.5,0,0,1-3.35,3c-4.39.54-8.57.11-12.37-2.34a13,13,0,0,1-4.78-5.29Z"/><path class="cls-3" d="M112.45,39.53c1.64.62,2.2,1.81,2.23,3.54.13,5.8.38,11.6.56,17.41a1.12,1.12,0,0,1-.36.84c-5.09,3.85-8.25,9-10.29,15a56.29,56.29,0,0,0-2.52,11.39c0,.31-.1.62-.17,1.1-.21-.28-.34-.43-.45-.61a42.69,42.69,0,0,1-5-12.88A99.88,99.88,0,0,1,94,57.74c-.29-4.85-.34-9.72-.54-14.58a3.27,3.27,0,0,1,2.22-3.63Z"/></g></g></svg>