<svg xmlns="http://www.w3.org/2000/svg" viewBox="0 0 212 224.34"><defs><style>.cls-1{fill:#0080ba;}.cls-2{fill:none;stroke:#0b527c;stroke-miterlimit:10;stroke-width:10px;}.cls-3{fill:#fff;}</style></defs><title>partesRecurso 40</title><g id="Capa_2" data-name="Capa 2"><g id="Capa_1-2" data-name="Capa 1"><rect class="cls-1" x="16" y="16.67" width="180" height="191" rx="31.58" ry="31.58"/><rect class="cls-2" x="5" y="5" width="202" height="214.34" rx="37.93" ry="37.93"/><path class="cls-3" d="M84.41,113.44A29.83,29.83,0,0,0,113.87,79h0a29.6,29.6,0,0,0-12.19-19.66,17.33,17.33,0,0,0-34.53,0A29.6,29.6,0,0,0,55,79h0A29.83,29.83,0,0,0,84.41,113.44Zm0-60.33A7.64,7.64,0,0,1,86.93,68a8.42,8.42,0,0,1-5,0,7.65,7.65,0,0,1,2.45-14.89Zm20.12,31.46a20.14,20.14,0,0,1-40.23,0Z"/><path class="cls-3" d="M106.59,123.2a44.31,44.31,0,0,0-44.35,0,1.62,1.62,0,0,0-.35,2.54l21.38,21.39a1.62,1.62,0,0,0,2.29,0l21.38-21.39A1.62,1.62,0,0,0,106.59,123.2Z"/><path class="cls-3" d="M56.32,129.3a1.62,1.62,0,0,0-2.24,0A44.3,44.3,0,0,0,40,161.67V177a4.84,4.84,0,0,0,4.84,4.84H79.57a1.61,1.61,0,0,0,1.62-1.61V154.83a1.65,1.65,0,0,0-.47-1.14Z"/><path class="cls-3" d="M146.57,137.64a19.1,19.1,0,1,0-19.09-19.1A19.12,19.12,0,0,0,146.57,137.64Z"/><path class="cls-3" d="M127,149.11a44.54,44.54,0,0,0-12.27-19.85,1.62,1.62,0,0,0-2.24,0l-24.4,24.39a1.65,1.65,0,0,0-.47,1.15v25.41a1.61,1.61,0,0,0,1.61,1.61c12.21,0,52.46.06,79.91.06a4.84,4.84,0,0,0,4.84-4.84v-8.76C174,143.85,144.17,131.65,127,149.11Z"/></g></g></svg>