<svg xmlns="http://www.w3.org/2000/svg" viewBox="0 0 212 224.34"><defs><style>.cls-1{fill:#0080ba;}.cls-2{fill:none;stroke:#0b527c;stroke-miterlimit:10;stroke-width:10px;}.cls-3{fill:#fff;}</style></defs><title>partesRecurso 90</title><g id="Capa_2" data-name="Capa 2"><g id="Capa_1-2" data-name="Capa 1"><rect class="cls-1" x="16" y="16.67" width="180" height="191" rx="31.58" ry="31.58"/><rect class="cls-2" x="5" y="5" width="202" height="214.34" rx="37.93" ry="37.93"/><path class="cls-3" d="M51.56,81.76c0-12.59.07-25.18-.05-37.77,0-2.41.69-3.11,3-3,3.39.18,6.8.1,10.19,0,1.68,0,2.58.27,2.47,2.28-.64,11.45-1.16,22.9-1.73,34.35-.23,4.58-.26,9.17-.58,13.75-.65,9.35-.93,18.73-1.32,28.1a9.24,9.24,0,0,1-2.83,6.06c-4.32,4.67-4.09,10.27.43,14.28a6.16,6.16,0,0,0,6.63,1.46,16.49,16.49,0,0,1,8.47-.87c5.7.88,10.27-4.1,9.41-9.85-.29-2-.64-4.11-2-5.59-4-4.35-3.4-9.58-3.19-14.75s.73-10.53,1-15.81c.51-11.16.89-22.33,1.4-33.49.27-6,.73-11.93,1-17.9.07-1.58.67-2,2.18-2q6.3.11,12.59,0c1.59,0,2,.49,1.87,2.12-1,12-1.88,24.05-2.85,36.06-1.11,13.71-2.21,27.42-3.46,41.11-.38,4.13.4,7.51,3.47,10.58,6,6,13.07,10.49,20.47,14.47,6.5,3.5,13.27,6.52,19.65,10.24,4.15,2.41,8.6,2.31,13,2.88,6,.76,11.65,2.67,17.39,4.3a3.57,3.57,0,0,1,2.75,4.36c-.93,5.7-3.05,10.83-7.86,14.3-3.76,2.72-8.1,1.91-12.13.78a19.09,19.09,0,0,0-12.82.61c-5.92,2.37-12,1.5-17.85-.55a82.27,82.27,0,0,0-16.47-4.21,28.56,28.56,0,0,0-10.06.62c-6.7,1.49-13.17,3.81-20.06,4.67C59.13,185.17,47,175.45,45.46,161c-1-9.54,1.17-18.45,3.86-27.3a53.19,53.19,0,0,0,2.13-15c.16-12.29.06-24.59.06-36.88Zm25.86,63.51c-5.06,0-8,.93-11,2.85a6,6,0,0,0-3,5.46c-.17,10.41,11.76,18,21.08,13.32,6-3,7.9-10,4.06-15.44A14.74,14.74,0,0,0,77.42,145.27Zm20.46,7.91A2.79,2.79,0,0,0,95,155.1a3.1,3.1,0,0,0,1.64,4c2.6,1.25,5.24,2.44,7.94,3.44,8.4,3.11,16.84,6.11,25.27,9.17,1.93.7,3.35.21,4.08-1.74s-.25-3-1.81-3.88a15.51,15.51,0,0,0-1.92-.84l-22.36-8.42C104.5,155.61,101.14,154.38,97.88,153.18Zm45.58,13.68c-2-.29-3.66,0-4,2.45s.9,3.48,3.17,3.75c4.52.55,9.07,1,13.55,1.81,2.21.39,3.37-.38,3.64-2.32a3.07,3.07,0,0,0-2.86-3.78Q150.25,167.8,143.46,166.86Z"/></g></g></svg>