<svg xmlns="http://www.w3.org/2000/svg" viewBox="0 0 212 224.34"><defs><style>.cls-1{fill:#0080ba;}.cls-2{fill:none;stroke:#0b527c;stroke-miterlimit:10;stroke-width:10px;}.cls-3{fill:#fff;}</style></defs><title>partesRecurso 30</title><g id="Capa_2" data-name="Capa 2"><g id="Capa_1-2" data-name="Capa 1"><rect class="cls-1" x="16" y="16.67" width="180" height="191" rx="31.58" ry="31.58"/><rect class="cls-2" x="5" y="5" width="202" height="214.34" rx="37.93" ry="37.93"/><path class="cls-3" d="M159.18,69.77h-2.71v-4.3a1.89,1.89,0,0,0-1.89-1.89H144a1.89,1.89,0,0,0-1.89,1.89v4.3h-9.39V65a13.31,13.31,0,0,0-13.3-13.3H95.59A13.31,13.31,0,0,0,82.29,65v4.8H72.9v-4.3A1.89,1.89,0,0,0,71,63.58H60.42a1.89,1.89,0,0,0-1.89,1.89v4.3H55.82a17.89,17.89,0,0,0-17.9,17.9v63.12a17.89,17.89,0,0,0,17.9,17.9H159.18a17.89,17.89,0,0,0,17.9-17.9V87.67A17.89,17.89,0,0,0,159.18,69.77ZM89.85,65a5.74,5.74,0,0,1,5.74-5.73h23.82A5.74,5.74,0,0,1,125.15,65v4.8H89.85Zm17.65,86.51a32.25,32.25,0,1,1,32.25-32.25A32.25,32.25,0,0,1,107.5,151.48Zm24.21-24.33a1.88,1.88,0,0,1-1.88,1.89l-12.5,0v12.49a1.89,1.89,0,0,1-1.89,1.89H99.56a1.89,1.89,0,0,1-1.89-1.89V129.07H85.19a1.89,1.89,0,0,1-1.89-1.88V111.31a1.89,1.89,0,0,1,1.89-1.89H97.67V96.91A1.89,1.89,0,0,1,99.56,95h15.88a1.89,1.89,0,0,1,1.89,1.89v12.48l12.48,0h0a1.89,1.89,0,0,1,1.89,1.89Z"/></g></g></svg>