<svg xmlns="http://www.w3.org/2000/svg" viewBox="0 0 212 224.34"><defs><style>.cls-1{fill:#0080ba;}.cls-2{fill:none;stroke:#0b527c;stroke-miterlimit:10;stroke-width:10px;}.cls-3{fill:#fff;}</style></defs><title>partesRecurso 100</title><g id="Capa_2" data-name="Capa 2"><g id="Capa_1-2" data-name="Capa 1"><rect class="cls-1" x="16" y="16.67" width="180" height="191" rx="31.58" ry="31.58"/><rect class="cls-2" x="5" y="5" width="202" height="214.34" rx="37.93" ry="37.93"/><path class="cls-3" d="M110.29,119.76,97.64,85.36c-.43-1.16-.87-2.32-1.29-3.48-1.72-4.7-4.81-7.68-10-7.8S77.86,76.8,75.89,81.4c-3.74,8.73-7.62,17.41-11.23,26.19-1.63,4-4,6-8.52,5.4a45.74,45.74,0,0,0-6.2-.08c-7.18,0-8.16-.3-9.09-7.14-1-7.3-1.79-14.85-1.05-22.13C42,62.5,63.37,45.93,84.24,49.41c5.84,1,11.38,4.5,16.72,7.47,2.89,1.6,5.21,2.36,7.9.28C123.71,45.7,139.21,46,154,56.34c15.25,10.66,20.38,26.08,17,44.33-.27,1.48-.6,3-.94,4.44-1.78,7.81-1.79,7.87-10,7.79-14.26-.14-12,1.77-20.19-10.64-5.47-8.24-14-8.13-19.34.15-1.71,2.67-3.25,5.45-4.85,8.18S112.5,116,110.29,119.76Z"/><path class="cls-3" d="M53,134.57c5.19,0,9.72-.16,14.23,0,6.35.28,10.45-2.65,12.89-8.32,1.46-3.37,3-6.72,4.91-11.13,1,2.2,1.63,3.45,2.12,4.75q5.34,14.31,10.64,28.63c1.54,4.14,4,7.12,8.83,7.56,5.11.46,8.72-1.56,11.24-6,4.06-7.18,8.28-14.27,12.82-22.05,7.07,10.3,18.05,4.87,28.48,7.46-9,9.63-16.94,18.87-25.67,27.34-5.9,5.73-12.8,10.44-19.35,15.47-4.94,3.78-10.3,4.61-15.74,1.1a154.07,154.07,0,0,1-43.9-42A28.41,28.41,0,0,1,53,134.57Z"/><path class="cls-3" d="M86.05,101.47a50.73,50.73,0,0,0-2.92,4.93q-3.93,8.86-7.67,17.83a6.79,6.79,0,0,1-7,4.65c-7.72-.09-15.45,0-23.17,0-3.48,0-5.93-1.07-5.86-5.18s1.62-5.79,5.75-5.87c5-.11,9.91-.25,14.85,0,4,.23,6.26-1.19,7.81-5,3.75-9.32,8-18.45,12-27.67,1.26-2.89,2.83-5.71,6.41-5.54s5,2.89,6.09,5.93c5.07,14,10.23,27.91,15.36,41.86.42,1.14.92,2.25,1.7,4.12,4.19-7.29,8-14,11.93-20.72,1.24-2.14,2.43-4.33,3.86-6.35,3.11-4.35,7.34-4.28,10.4.17a63.3,63.3,0,0,1,3.72,6.44c2.65,5,6.63,7.52,12.43,7,3.71-.33,7.43-.46,11.15-.54a17.19,17.19,0,0,1,4.9.54c3,.82,4,3.1,3.82,6s-2,4.45-4.88,4.51c-8.27.16-16.55.5-24.8.16-2.23-.09-4.68-2-6.45-3.67s-3-4.22-4.84-7c-4.46,7.7-8.61,14.9-12.79,22.09a74,74,0,0,1-4.29,7.05c-4.06,5.45-9,4.84-11.42-1.52-4.66-12.5-9.08-25.1-13.6-37.66C87.85,106.26,87.17,104.46,86.05,101.47Z"/></g></g></svg>